<svg xmlns="http://www.w3.org/2000/svg" version="1.1" xmlns:xlink="http://www.w3.org/1999/xlink" xmlns:svgjs="http://svgjs.dev/svgjs" width="1000" height="1000" viewBox="0 0 1000 1000"><rect width="1000" height="1000" fill="#000000"></rect><g transform="matrix(0.7,0,0,0.7,150.0000000000001,106.25)"><svg viewBox="0 0 320 360" data-background-color="#ffffff" preserveAspectRatio="xMidYMid meet" height="1125" width="1000" xmlns="http://www.w3.org/2000/svg" xmlns:xlink="http://www.w3.org/1999/xlink"><g id="tight-bounds" transform="matrix(1,0,0,1,0,0)"><svg viewBox="0 0 320 360" height="360" width="320"><g><svg></svg></g><g><svg viewBox="0 0 320 360" height="360" width="320"><g><path xmlns="http://www.w3.org/2000/svg" d="M20.961 227.22l3.726 4.658-1.863-6.056c-0.466-2.795-3.726 0.466-1.863 1.398M25.153 224.425c1.397 2.329 2.795 4.658 2.795 6.987 0 3.261 2.795 4.658 5.123 5.589-3.261-3.726-5.124-13.974-7.918-12.576M204.017 26.929c7.918 0 15.371-0.932 23.756 0.931 20.495 5.124 37.729 15.371 49.374 29.811l32.606 52.169c1.397 13.042 4.192 27.482 3.726 43.319 3.261 0 2.795-4.658 6.521-5.59-3.726 9.316-5.59 20.961-6.521 34.469-2.329-7.453 0-18.632 0.466-24.687-3.261 5.124-5.124 1.397-5.124-0.932 0.466-3.726-1.397-3.261-2.795-4.658-5.124-4.658-8.384-9.782-12.11-17.7 2.329-6.055 2.795-14.905-4.658-19.563-2.329-1.397-5.124-3.726-6.521-7.453-1.863-5.124-5.124-11.179-4.193-19.097 0.466-2.329-6.987 5.124-11.179 1.863-18.166-12.576-36.332-27.016-58.224-39.127-11.645 0-20.029-4.192-24.221-9.316-3.726-4.658-0.932-10.713 4.658-11.179 3.261 0 6.987-0.932 9.782 0.932 0.466-1.863 2.329-4.192 4.657-4.192M157.904 16.215l0.932 0.466c4.658 0.932 6.987 7.453 12.11 5.124 0 3.261 0.466 6.521-0.466 8.85-1.397 3.726-5.59 3.726-8.85 3.726-31.208-1.863-49.374 11.179-68.471 22.358-5.124 3.261-10.713 5.59-14.906 9.782-20.029 18.632-41.921 35.866-47.045 70.335l-4.192 38.195c-0.466 4.192-5.124 8.384-4.192 13.508l3.26 22.824c-3.261-3.261-5.124 0.932-4.192 2.795 0.466 1.397 2.329 6.055 5.124 1.863 3.726 6.987 7.453 20.495 12.576 26.55 15.837 18.632 36.332 35.4 53.101 52.169 4.192-0.932 7.453-0.932 8.384-3.727 1.397 2.795-1.397 5.59-3.726 6.056 7.453 4.658 15.837 8.85 27.016 9.781 14.44 0.932 27.948 3.261 40.524 6.522 6.521-1.863 13.042-2.795 20.029-3.261 2.329 0 3.726-3.726 6.521-4.658l0.466-4.658c2.795 4.192 2.329-1.397 0.466-4.192 3.261 2.795 4.192 5.124 5.589 6.987 0-1.397 3.726-6.521 3.727-0.466l0.931-6.055c1.397-0.932 1.863 5.124 3.261 0.931 1.397-4.192 4.192-0.932 6.987-2.329-0.932 1.863-0.466 5.59 2.794 3.261l3.727-3.261c2.329 5.59 6.055 3.261 7.918 2.329 20.495-13.042 40.99-28.413 60.553-43.784l-0.466 6.055 2.329-7.453c2.329 2.329 4.192 0.466 5.124-0.931 2.795-4.658 6.521-9.316 12.577-13.508-7.453 20.029-16.303 35.866-27.482 48.908l-4.658 5.59c0 3.261-0.932 7.453-4.658 7.918-1.863 0.466-5.59-0.932-8.384 1.863-1.397 1.863 3.261 5.59-0.466 2.795-3.261-2.329-6.521 0-10.248 0.932-2.795 0.932 1.863 3.726 2.795 5.589 0.932 1.863 1.863 3.726 1.398 6.056l-5.124-5.59c-6.055 3.261-9.782 9.316-14.906 13.974-2.329 1.863-1.397 5.124-1.397 7.918-3.261 0-6.987-0.932-8.85 0.932-1.397 1.863-0.932 4.658-0.932 7.453-4.658-0.466-5.124-7.453-9.315-6.056-4.192 0.932-8.85 1.397-12.577 3.727 2.795 5.59-4.658 2.329-3.726 3.26-6.987-4.192-13.042-7.453-20.495-4.658-15.837-5.124-35.4-2.795-49.84-0.931 0-2.329 0.466-4.658-0.466-5.124-0.932 2.329-3.726 1.397-3.26 1.397-8.85-6.055-17.7-9.782-27.016-14.905-8.384 0.932-16.303-3.261-18.632-5.59-6.521-6.055-13.974-2.795-20.029-4.192-13.042-3.261-17.7-16.769-19.098-26.084-0.932-4.658-4.658-6.521-6.055-6.056-6.055-19.563-15.371-37.263-22.824-55.429-1.863-4.658-1.397-9.316-1.397-14.44 2.329 0.932 4.658 0.466 4.192-2.794-2.329-15.371-7.918-27.016-13.974-38.195 3.261-15.837 3.726-34.469 11.179-48.443 6.521-12.576 18.632-19.098 27.016-29.811 2.795-3.726 2.795-8.85 5.59-12.11 9.316-9.316 18.632-19.098 28.879-27.482 4.658-3.726 10.247 0 17.234-1.397 2.329-8.384 11.645-15.837 20.495-13.508 3.726 0.932 11.179-8.85 13.508-9.782 3.726-1.397 1.863 3.726 1.863 6.987 8.85-6.987 20.961-10.713 32.14-14.906" fill="#ffffff" fill-rule="nonzero" stroke="none" stroke-width="1" stroke-linecap="butt" stroke-linejoin="miter" stroke-miterlimit="10" stroke-dasharray="" stroke-dashoffset="0" font-family="none" font-weight="none" font-size="none" text-anchor="none" style="mix-blend-mode: normal" data-fill-palette-color="tertiary"></path></g><g transform="matrix(1,0,0,1,64,122.34449113043478)"><svg viewBox="0 0 192 115.31101773913045" height="115.31101773913045" width="192"><g><svg viewBox="0 0 192 115.31101773913045" height="115.31101773913045" width="192"><g><svg viewBox="0 0 192 115.31101773913045" height="115.31101773913045" width="192"><g transform="matrix(1,0,0,1,0,69.6961109068323)"><svg viewBox="0 0 192 45.61490683229814" height="45.61490683229814" width="192"><g id="textblocktransform"><svg viewBox="0 0 192 45.61490683229814" height="45.61490683229814" width="192" id="textblock"><g><svg viewBox="0 0 192 45.61490683229814" height="45.61490683229814" width="192"><g transform="matrix(1,0,0,1,0,0)"><svg width="192" viewBox="2.25 -36.849998474121094 160.99000549316406 38.25" height="45.61490683229814" data-palette-color="#111111"><path d="M11.95-3.1L21.25-3.5 22.85 0.3 10.8 1.1 3.05-3.95 2.25-26.45 8.1-34.9 17.8-36.85 24-32.65 17.8-24.45 16.3-25.6 19.35-31.4 16.65-33.8 10.05-32.25 7.35-25.25 7.35-5.85 11.95-3.1ZM37.95-22.55L32.85-22.95 28.45-17.25 29.4-7.4 34.95-2.15 38.7-2.2 43.4-11.4 41.3-20.05 37.95-22.55ZM31.25-26.3L39.65-26.3 44.95-21.4 46.95-9.95 39.9 1.1 32.9 1.4 25.55-7.45 25-18.85 31.25-26.3ZM52.6-24.7L60.85-26.1 66.45-23.8 68.45-25.75 70.6-24.25 66.8-19.15 65-20.85 56.8-22.8 54.15-19.7 57.6-14.85 67.65-12.35 69.05-3.85 62.45 0.25 53.65-1.75 52.45 0.3 49.95-0.15 51.65-5.4 61.85-3 65-5.35 63.8-9.55 53.1-13.2 50.2-19.15 52.6-24.7ZM115.44-8.45L117.64-5.8 111.39 0 107.29-0.75 106.84-20.7 103.79-22.6 96.59-17.55 96.99-15.5 97.49-2.75 99.99-1.55 99.74-0.35 90.59-0.1 90.79-1.4 93.29-2.6 92.99-19.5 90.94-22.7 86.44-20.55 81.59-15.75 82.04-2.7 85.19-1.65 84.94 0.15 75.44 0.05 75.29-1.35 77.54-2.25 77.89-21.9 74.09-24.45 76.29-28.15 80.54-24.75 80.84-19.65 87.39-24.85 95.09-24.6 95.99-19.9 103.94-24.85 109.19-23.95 111.04-19.9 110.29-3.5 111.64-3.4 115.44-8.45ZM130.59-22.55L125.49-22.95 121.09-17.25 122.04-7.4 127.59-2.15 131.34-2.2 136.04-11.4 133.94-20.05 130.59-22.55ZM123.89-26.3L132.29-26.3 137.59-21.4 139.59-9.95 132.54 1.1 125.54 1.4 118.19-7.45 117.64-18.85 123.89-26.3ZM145.24-24.7L153.49-26.1 159.09-23.8 161.09-25.75 163.24-24.25 159.44-19.15 157.64-20.85 149.44-22.8 146.79-19.7 150.24-14.85 160.29-12.35 161.69-3.85 155.09 0.25 146.29-1.75 145.09 0.3 142.59-0.15 144.29-5.4 154.49-3 157.64-5.35 156.44-9.55 145.74-13.2 142.84-19.15 145.24-24.7Z" opacity="1" transform="matrix(1,0,0,1,0,0)" fill="#ffffff" class="wordmark-text-0" data-fill-palette-color="primary" id="text-0"></path></svg></g></svg></g></svg></g></svg></g><g transform="matrix(1,0,0,1,46.939795380374456,0)"><svg viewBox="0 0 98.12040923925109 63.039801242236024" height="63.039801242236024" width="98.12040923925109"><g><svg xmlns="http://www.w3.org/2000/svg" xmlns:xlink="http://www.w3.org/1999/xlink" version="1.1" x="0" y="0" viewBox="7.847548484802246 13.086999893188477 29.303916931152344 18.827001571655273" enable-background="new 0 0 45 45" xml:space="preserve" height="63.039801242236024" width="98.12040923925109" class="icon-icon-0" data-fill-palette-color="accent" id="icon-0"><g fill="#7fdbff" data-fill-palette-color="accent"><path d="M20.935 18.975c-4.969 1.811-8.174 5.115-7.297 7.523 0.284 0.782 0.979 1.369 1.986 1.736 0.044 1.016 0.879 1.831 1.906 1.831 0.896 0 1.644-0.62 1.852-1.452 1.488-0.118 3.095-0.47 4.683-1.047 2.308-0.84 4.334-2.045 5.706-3.395 1.47-1.444 2.035-2.911 1.592-4.128C30.486 17.638 25.905 17.167 20.935 18.975zM17.53 29.065c-0.504 0-0.914-0.409-0.914-0.913s0.41-0.914 0.914-0.914 0.914 0.41 0.914 0.914S18.034 29.065 17.53 29.065zM29.069 23.46c-1.272 1.25-3.171 2.375-5.347 3.167-1.485 0.539-2.981 0.869-4.365 0.985-0.234-0.792-0.96-1.374-1.827-1.374-0.733 0-1.364 0.419-1.686 1.026-0.526-0.208-1.063-0.547-1.268-1.108-0.59-1.621 1.961-4.516 6.699-6.242 4.744-1.726 8.557-1.146 9.146 0.472C30.72 21.201 30.227 22.321 29.069 23.46z" fill="#ffffff" data-fill-palette-color="accent"></path><path d="M24.09 20.891c-0.711 0-1.505 0.152-2.298 0.44-2.104 0.77-3.388 2.182-2.986 3.283 0.24 0.659 1.007 1.037 2.103 1.037 0.711 0 1.505-0.153 2.298-0.442 1.4-0.509 2.513-1.347 2.903-2.188 0.178-0.38 0.206-0.76 0.083-1.095C25.954 21.269 25.188 20.891 24.09 20.891zM25.203 22.6c-0.229 0.491-1.04 1.197-2.339 1.67-0.675 0.246-1.369 0.382-1.956 0.382-0.708 0-1.095-0.19-1.163-0.379-0.145-0.396 0.735-1.396 2.39-2.002 0.674-0.245 1.368-0.38 1.955-0.38 0.705 0 1.097 0.195 1.163 0.379C25.291 22.372 25.247 22.506 25.203 22.6z" fill="#ffffff" data-fill-palette-color="accent"></path><path d="M36.927 18.019c-0.085-0.236-0.197-0.466-0.332-0.683-0.259-0.417-0.611-0.784-1.036-1.106 0.052-0.2 0.088-0.407 0.088-0.623 0-1.39-1.13-2.52-2.519-2.52-1.067 0-1.977 0.67-2.343 1.609-0.446-0.039-0.902-0.068-1.392-0.068-2.883 0-6.127 0.626-9.382 1.811-8.09 2.947-13.334 8.255-11.939 12.084 0.785 2.154 3.53 3.391 7.533 3.391 2.884 0 6.127-0.627 9.381-1.812 3.794-1.381 7.122-3.358 9.371-5.569C36.704 22.227 37.617 19.912 36.927 18.019zM33.128 14.087c0.837 0 1.519 0.682 1.519 1.52 0 0.837-0.682 1.518-1.519 1.518-0.838 0-1.52-0.681-1.52-1.518C31.608 14.769 32.29 14.087 33.128 14.087zM33.656 23.819c-2.148 2.112-5.35 4.01-9.012 5.343-3.101 1.129-6.311 1.751-9.039 1.751-3.505 0-5.971-1.021-6.594-2.732-1.162-3.192 4.031-8.14 11.342-10.803 3.102-1.128 6.312-1.75 9.04-1.75 0.428 0 0.83 0.024 1.223 0.057 0.042 1.351 1.148 2.439 2.512 2.439 0.801 0 1.508-0.383 1.97-0.968 0.256 0.217 0.486 0.447 0.647 0.707 0.1 0.161 0.179 0.323 0.242 0.497C36.527 19.843 35.678 21.833 33.656 23.819z" fill="#ffffff" data-fill-palette-color="accent"></path></g></svg></g></svg></g><g></g></svg></g></svg></g></svg></g></svg></g><defs></defs></svg><rect width="320" height="360" fill="none" stroke="none" visibility="hidden"></rect></g></svg></g></svg>